<svg width="70" height="68" viewBox="0 0 70 68" fill="none" xmlns="http://www.w3.org/2000/svg">
<path fill-rule="evenodd" clip-rule="evenodd" d="M35.1678 1.80221e-05C26.8191 -0.00840152 18.7403 2.9335 12.3791 8.29852C6.01784 13.6635 1.79005 21.101 0.453321 29.278C-0.883403 37.455 0.75832 45.8371 5.08428 52.9222C9.41024 60.0073 16.1377 65.3322 24.061 67.9427C25.8294 68.2637 26.4549 67.1723 26.4549 66.2522C26.4549 65.332 26.4549 63.2349 26.4549 60.3246C16.6421 62.4431 14.5717 55.6381 14.5717 55.6381C13.9207 53.5291 12.5377 51.7171 10.6681 50.5237C7.49783 48.3838 10.9269 48.3838 10.9269 48.3838C12.0382 48.5395 13.0993 48.9442 14.0297 49.567C14.9601 50.1899 15.7354 51.0146 16.297 51.9788C16.7742 52.8374 17.4175 53.594 18.1901 54.2052C18.9627 54.8164 19.8493 55.2703 20.7991 55.5406C21.7489 55.811 22.7432 55.8927 23.7248 55.7809C24.7065 55.6691 25.6562 55.366 26.5196 54.8891C26.6549 53.1287 27.4198 51.4743 28.6762 50.2241C20.8691 49.3467 12.6738 46.3508 12.6738 33.1047C12.6202 29.6444 13.9097 26.2962 16.2754 23.7532C15.2218 20.7445 15.345 17.453 16.6205 14.5301C16.6205 14.5301 19.5751 13.5886 26.2823 18.1038C32.0419 16.5347 38.1211 16.5347 43.8807 18.1038C50.5879 13.5886 53.521 14.5301 53.521 14.5301C54.8143 17.4221 54.9682 20.69 53.9523 23.689C56.318 26.232 57.6075 29.5802 57.5539 33.0405C57.5539 46.4364 49.337 49.3681 41.5084 50.1599C42.3478 50.9972 42.996 52.0038 43.409 53.1114C43.8221 54.2191 43.9903 55.4019 43.9022 56.5797C43.9022 61.2447 43.9022 65.011 43.9022 66.1452C43.9022 67.2793 44.5277 68.1567 46.3177 67.8143C54.1508 65.135 60.7775 59.7949 65.027 52.7374C69.2766 45.6799 70.8756 37.3592 69.5415 29.2453C68.2075 21.1314 64.0262 13.7464 57.7363 8.39501C51.4465 3.04361 43.4529 0.0701844 35.1678 1.80221e-05Z" 
fill="#5b8c30"/>
</svg>
