<svg width="200mm" height="200mm" version="1.1" viewBox="0 0 200 200" xmlns="http://www.w3.org/2000/svg" fill="#5b8c30">
 <g transform="matrix(6.5943 0 0 6.5941 -73.316 -586.74)">
  <path transform="rotate(-45 70.269 85.378)" d="m13.83 60.908c-3.6579 2e-6 -6.6367 2.9788-6.6367 6.6367 7e-7 3.6579 2.9788 6.6367 6.6367 6.6367h3.0176v-1.207h-3.0176c-3.0059-4e-6 -5.4297-2.4238-5.4297-5.4297 6.4e-6 -3.0059 2.4238-5.4297 5.4297-5.4297h3.0176v-1.207zm21.115 0v1.207h3.0176c3.0059 4e-6 5.4297 2.4238 5.4297 5.4297-6e-6 3.0059-2.4238 5.4297-5.4297 5.4297h-3.0176v1.207h3.0176c3.658-1e-5 6.6348-2.9788 6.6348-6.6367-6e-6 -3.6579-2.9768-6.6367-6.6348-6.6367z" color="#000000" color-rendering="auto" dominant-baseline="auto" fill-opacity=".78431" image-rendering="auto" shape-rendering="auto" solid-color="#000000" style="font-feature-settings:normal;font-variant-alternates:normal;font-variant-caps:normal;font-variant-ligatures:normal;font-variant-numeric:normal;font-variant-position:normal;isolation:auto;mix-blend-mode:normal;shape-padding:0;text-decoration-color:#000000;text-decoration-line:none;text-decoration-style:solid;text-indent:0;text-orientation:mixed;text-transform:none;white-space:normal"/>
  <path d="m13.058 90.921c-2.5866 2.5866-2.5866 6.7992 0 9.3857l17.064 17.064c2.5866 2.5866 6.7978 2.5852 9.3844-1e-3 2.5866-2.5866 2.5879-6.7978 0.0014-9.3844l-17.064-17.064c-2.5866-2.5866-6.7992-2.5866-9.3857 0zm0.8535 0.8535c2.1255-2.1255 5.5533-2.1255 7.6787 0l3.8394 3.8394-7.6787 7.6787-3.8394-3.8394c-2.1255-2.1255-2.1255-5.5533-1e-6 -7.6787zm13.225 20.904 7.6787-7.6787 3.8394 3.8394c2.1255 2.1255 2.1255 5.5533 2e-6 7.6787-2.1255 2.1255-5.5533 2.1255-7.6787 0z"/>
 </g>
</svg>
